# xmcd
#
# Track frame offsets:
#	150
#	25081
#	52747
#	59974
#	83840
#	91956
#	106481
#	118398
#	127533
#	139247
#	156924
#	170094
#	181239
#	202495
#	224523
#
# Disc length: 3116 seconds
# Revision: 0
# Processed by: cddbd v1.5.2PL0 Copyright (c) Steve Scherf et al.
# Submitted via: dBpowerAMP V12.0
#
DISCID=e00c2a0f
DTITLE=Hale Dwoskin - Practical Freedom CD 02 - The Wealth Builder
DYEAR=2005
DGENRE=Speech
TTITLE0=Introduction
TTITLE1=Resistance to Having - Receiving - Spending Money
TTITLE2=Scarcity - Abundance
TTITLE3=Hating and Loving Money - Sharing - Paying Taxes
TTITLE4=Being Careless with Money
TTITLE5=Popular Beliefs pt 1
TTITLE6=Popular Beliefs pt 2 - Take a Break
TTITLE7=Welcome Back
TTITLE8=Popular Beliefs pt 3
TTITLE9=Popular Beliefs pt 4
TTITLE10=Popular Beliefs pt 5
TTITLE11=Feeling Guilty about Having Money
TTITLE12=Rejecting What You Need - Want - Have
TTITLE13=Hoarding What You Need - Rejecting Abundance
TTITLE14=Surrendering to Having It All - Conclusion
EXTD=
EXTT0=
EXTT1=
EXTT2=
EXTT3=
EXTT4=
EXTT5=
EXTT6=
EXTT7=
EXTT8=
EXTT9=
EXTT10=
EXTT11=
EXTT12=
EXTT13=
EXTT14=
PLAYORDER=
